# Blender v2.76 (sub 0) OBJ File: ''
# www.blender.org
mtllib cube.mtl
o Cube
v 1.000000 -1.000000 -1.000000
v 1.000000 -1.000000 1.000000
v -1.000000 -1.000000 1.000000
v -1.000000 -1.000000 -1.000000
v 1.000000 1.000000 -0.999999
v 0.999999 1.000000 1.000001
v -1.000000 1.000000 1.000000
v -1.000000 1.000000 -1.000000
# 纹理坐标调整为0~1范围，每个面使用独立的UV
vt 0.000000 0.000000  # 底面
vt 1.000000 0.000000
vt 1.000000 1.000000
vt 0.000000 1.000000
vt 0.000000 0.000000  # 顶面
vt 1.000000 0.000000
vt 1.000000 1.000000
vt 0.000000 1.000000
vt 0.000000 0.000000  # 右侧面
vt 1.000000 0.000000
vt 1.000000 1.000000
vt 0.000000 1.000000
vt 0.000000 0.000000  # 前面
vt 1.000000 0.000000
vt 1.000000 1.000000
vt 0.000000 1.000000
vt 0.000000 0.000000  # 左侧面
vt 1.000000 0.000000
vt 1.000000 1.000000
vt 0.000000 1.000000
vt 0.000000 0.000000  # 后面
vt 1.000000 0.000000
vt 1.000000 1.000000
vt 0.000000 1.000000
vn 0.000000 -1.000000 0.000000
vn 0.000000 1.000000 0.000000
vn 1.000000 0.000000 0.000000
vn -0.000000 0.000000 1.000000
vn -1.000000 -0.000000 -0.000000
vn 0.000000 0.000000 -1.000000
usemtl Material
s off
# 底面 (y=-1)
f 1/1/1 2/2/1 3/3/1
f 1/1/1 3/3/1 4/4/1
# 顶面 (y=1)
f 5/5/2 8/8/2 7/7/2
f 5/5/2 7/7/2 6/6/2
# 右侧面 (x=1)
f 1/9/3 5/12/3 6/11/3
f 1/9/3 6/11/3 2/10/3
# 前面 (z=1)
f 2/13/4 6/16/4 7/15/4
f 2/13/4 7/15/4 3/14/4
# 左侧面 (x=-1)
f 3/17/5 7/20/5 8/19/5
f 3/17/5 8/19/5 4/18/5
# 后面 (z=-1)
f 4/21/6 8/24/6 5/23/6
f 4/21/6 5/23/6 1/22/6
